<?xml version="1.0" encoding="UTF-8" standalone="no"?>
<!-- Created with Inkscape (http://www.inkscape.org/) -->

<svg
   width="512"
   height="512"
   viewBox="0 0 512 512"
   version="1.1"
   id="svg1"
   inkscape:version="1.4.3 (0d15f75042, 2025-12-25)"
   sodipodi:docname="antiquar_logo.svg"
   xmlns:inkscape="http://www.inkscape.org/namespaces/inkscape"
   xmlns:sodipodi="http://sodipodi.sourceforge.net/DTD/sodipodi-0.dtd"
   xmlns:xlink="http://www.w3.org/1999/xlink"
   xmlns="http://www.w3.org/2000/svg"
   xmlns:svg="http://www.w3.org/2000/svg">
  <sodipodi:namedview
     id="namedview1"
     pagecolor="#ffffff"
     bordercolor="#000000"
     borderopacity="0.25"
     inkscape:showpageshadow="2"
     inkscape:pageopacity="0.0"
     inkscape:pagecheckerboard="0"
     inkscape:deskcolor="#d1d1d1"
     inkscape:document-units="px"
     inkscape:zoom="1.203125"
     inkscape:cx="50.701299"
     inkscape:cy="250.18182"
     inkscape:window-width="2548"
     inkscape:window-height="1388"
     inkscape:window-x="0"
     inkscape:window-y="0"
     inkscape:window-maximized="1"
     inkscape:current-layer="g9" />
  <defs
     id="defs1">
    <linearGradient
       id="linearGradient1357"
       inkscape:collect="always">
      <stop
         style="stop-color:#8d002f;stop-opacity:1;"
         offset="0"
         id="stop1357" />
      <stop
         style="stop-color:#ff9494;stop-opacity:1;"
         offset="1"
         id="stop1358" />
    </linearGradient>
    <radialGradient
       inkscape:collect="always"
       xlink:href="#linearGradient1357"
       id="radialGradient1358"
       cx="115.98982"
       cy="455.06494"
       fx="115.98982"
       fy="455.06494"
       r="230.64935"
       gradientUnits="userSpaceOnUse"
       gradientTransform="translate(68.987013,-70.649351)" />
  </defs>
  <g
     inkscape:label="Ebene 1"
     inkscape:groupmode="layer"
     id="layer1">
    <g
       id="g9"
       transform="translate(4.1140758)">
      <path
         d="m 451.60334,20.896764 c -6.67749,-7.385238 -22.61925,-4.557993 -32.51655,-3.47649 -30.44339,3.326625 -92.52444,8.670754 -296.10516,30.847304 l 0.0723,0.316406 C 131.2171,63.187458 364.07407,482.00698 232.22385,504.07227 l 190.45624,-25.40172 c 0,0 20.53205,-2.32695 27.82042,-10.6094 7.16204,-8.13888 5.15223,-26.29003 5.15223,-26.29003 l 2.11739,-398.548422 c 0,0 0.5107,-14.940696 -6.16679,-22.325934 z"
         id="path18"
         style="fill:#083131;fill-opacity:1;stroke:#000000;stroke-opacity:1"
         sodipodi:nodetypes="zsccccsccz" />
      <path
         d="M 389.39569,35.455078 C 383.32152,35.351496 384.17279,50.323641 385.65155,61.5 l -54.00195,4.787109 c -1.33465,-9.267644 -4.40165,-18.631497 -11.00391,-23.410156 -1.3549,-0.980663 -2.55131,-1.416793 -3.60547,-1.396484 -5.69245,0.109667 -7.2523,13.555271 -7.41016,26.759765 l -66.73437,5.916016 c -0.12692,-4.367178 -0.20898,-6.884766 -0.20898,-6.884766 0,0 9.67187,-16.311939 -6.08594,-21.091797 -0.98486,-0.29874 -1.90382,-0.468758 -2.76172,-0.523437 -0.40214,-0.02563 -0.79036,-0.02705 -1.16602,-0.0039 -11.64531,0.717595 -10.77929,24.130859 -10.77929,24.130859 l 0.0351,6.232422 -29.4414,2.609375 c 0,0 -17.89148,0.59726 -25.29493,13.294922 -7.40343,12.697648 33.33985,2.253906 33.33985,2.253906 0,0 8.16996,-0.518959 21.48828,-1.449219 l 0.54102,98.253911 c 0,0 16.39102,42.59536 19.99414,12.14453 2.51376,-21.24429 1.58346,-78.969 0.79101,-111.931644 19.05714,-1.406954 42.62147,-3.247631 66.73633,-5.380859 0.27005,4.683891 0.55664,7.78125 0.55664,7.78125 l 3.50586,321.601563 c 0,0 17.66853,107.52647 21.85937,-17.02149 2.45404,-72.9318 -3.98437,-306.365229 -3.98437,-306.365229 0,0 0.37586,-3.220043 0.51172,-8.058594 19.53013,-1.866535 38.6158,-3.896502 55.14648,-6.015625 l 3.45899,313.539058 c 0,0 13.55313,107.64875 17.15625,35.8418 3.38458,-67.45123 1.04447,-321.8048 0.74804,-352.414061 13.19977,-2.110979 23.09108,-4.271156 27.77344,-6.414063 27.60476,-12.633461 -20.67383,-9.488281 -20.67383,-9.488281 l -8.73242,0.773437 C 405.59685,52.181813 401.7386,43.059046 393.5246,37.183594 391.88476,36.01062 390.52054,35.47426 389.39569,35.455078 Z"
         style="fill:#f2dada;stroke-width:1.14954;stroke:#000000;stroke-opacity:1"
         id="path19" />
      <path
         d="M 92.589049,173.07812 31.737487,424.33789 c 0,0 -31.15059382,79.34288 30.560547,69.35156 61.711136,-9.99133 2.939502,-89.3358 79.343746,-95.80078 75.51458,-6.3897 -22.97796,119.9165 85.77149,106.6582 1.093,-0.13324 1.90373,-0.0765 3.03906,-0.23828 l 1.76758,-0.23632 h 0.002 0.002 C 323.42217,488.8101 242.64393,282.48928 177.40741,153.89062 148.2709,96.454755 126.11735,46.635823 121.87844,48.437053 116.39865,50.765562 92.589049,173.07812 92.589049,173.07812 Z m 52.541011,96.64649 c 20.11194,-0.91718 36.03508,29.61196 32.95118,45.88281 -5.74254,30.29796 -28.25391,27.23828 -28.25391,27.23828 -14.69312,1.76318 -58.73,-9.60648 -29.34375,-54.86133 8.26489,-12.72791 16.7766,-17.90086 24.64648,-18.25976 z"
         style="opacity:1;fill:url(#radialGradient1358);stroke:#000000;stroke-opacity:1"
         id="path1362"
         sodipodi:nodetypes="ccsssccccsscsscss" />
    </g>
  </g>
</svg>
